Coordinates
version=1
nRows=15
nColumns=23
inDegrees=yes

Units are S.I. units (second, meters, Newtons, ...)
If the header above contains a line with 'inDegrees', this indicates whether rotational values are in degrees (yes) or radians (no).

endheader
time	pelvis_tilt	pelvis_list	pelvis_rotation	pelvis_tx	pelvis_ty	pelvis_tz	hip_flexion_r	hip_adduction_r	hip_rotation_r	knee_angle_r	knee_angle_r_beta	ankle_angle_r	subtalar_angle_r	mtp_angle_r	hip_flexion_l	hip_adduction_l	hip_rotation_l	knee_angle_l	knee_angle_l_beta	ankle_angle_l	subtalar_angle_l	mtp_angle_l
     15.00000000	     -9.68004144	      8.67919382	      1.78381992	      2.01579672	      0.92950482	      0.98750778	     48.98682318	     -9.55391903	      5.55103598	    106.66054629	      1.86157771	     -5.02365707	    -18.62689942	      0.00000000	     11.69384604	     11.66206763	     -5.10157836	     35.91241805	      0.62678994	     19.85163661	    -13.18204698	      0.00000000
     15.00666667	    -10.35549780	      8.00998316	      1.27115993	      2.01534169	      0.93156560	      0.98812113	     51.36682045	     -8.26454858	      5.55285480	    104.57762756	      1.82522392	     -4.47324214	    -18.43150498	      0.00000000	     10.23067379	     10.96396090	     -4.93188729	     34.31745348	      0.59895255	     19.25552725	    -12.46218090	      0.00000000
     15.01333333	     -9.65186805	      6.48660822	      0.19657112	      2.01603936	      0.93656431	      0.98991448	     51.65484590	     -5.93363751	      4.84070593	    101.72577193	      1.77544965	     -4.22156743	    -19.05913849	      0.00000000	      7.06379417	      9.06504436	     -5.66559188	     32.22249934	      0.56238871	     17.40903320	    -11.49122928	      0.00000000
     15.02000000	     -9.83305939	      5.38018584	     -0.48545829	      2.01662661	      0.94027191	      0.99102408	     52.83518862	     -4.31482150	      4.20065438	     98.78793293	      1.72417469	     -3.83925263	    -19.60914707	      0.00000000	      4.88538629	      7.83412807	     -5.91673056	     30.16181106	      0.52642291	     15.57637115	    -10.71510495	      0.00000000
     15.02666667	    -10.08418583	      4.24139447	     -1.06216196	      2.01758236	      0.94413685	      0.99201269	     53.83111367	     -2.85091631	      3.34251060	     95.54847901	      1.66763555	     -3.50587103	    -20.35757112	      0.00000000	      2.75865928	      6.60660824	     -6.11944130	     28.00609578	      0.48879858	     13.31998223	     -9.96421106	      0.00000000
     15.03333333	    -10.42158090	      3.15005919	     -1.59044499	      2.01878298	      0.94797632	      0.99297872	     54.71536877	     -1.53006037	      2.40646339	     92.06326878	      1.60680716	     -3.21030575	    -21.22306729	      0.00000000	      0.75269868	      5.43842316	     -6.37801870	     25.83557149	      0.45091579	     10.69057231	     -9.17033218	      0.00000000
     15.04000000	    -10.78281350	      2.00664291	     -1.96675349	      2.02024923	      0.95192901	      0.99370709	     55.38133915	     -0.40280615	      1.23942893	     88.30862738	      1.54127631	     -2.92413581	    -22.06283738	      0.00000000	     -1.15619860	      4.21676665	     -6.57690990	     23.75134052	      0.41453909	      7.76097779	     -8.31453117	      0.00000000
     15.04666667	    -11.20784232	      0.95564956	     -2.27555479	      2.02192227	      0.95575155	      0.99434253	     55.93246792	      0.52673237	      0.03909239	     84.36404166	      1.47243030	     -2.64371786	    -22.78760458	      0.00000000	     -2.88222259	      3.08293326	     -6.80214933	     21.81778037	      0.38079210	      4.57038660	     -7.43771213	      0.00000000
     15.05333333	    -11.62415852	      0.03852805	     -2.59073913	      2.02362970	      0.95946382	      0.99496786	     56.32538104	      1.31461230	     -1.09225805	     80.27041299	      1.40098300	     -2.39778978	    -23.38185681	      0.00000000	     -4.48165026	      2.08463012	     -7.13435862	     20.06576181	      0.35021361	      1.18942912	     -6.58709743	      0.00000000
     15.06000000	    -12.06488751	     -0.68548948	     -2.90322290	      2.02540728	      0.96292075	      0.99555442	     56.60571802	      1.91303133	     -2.12003495	     76.06965130	      1.32766588	     -2.12448410	    -23.68082199	      0.00000000	     -5.88065030	      1.27573612	     -7.53908876	     18.59644469	      0.32456919	     -2.24676933	     -5.80923927	      0.00000000
     15.06666667	    -12.38793151	     -1.37132324	     -3.09922926	      2.02732062	      0.96644239	      0.99592861	     56.56239675	      2.31631681	     -3.25709322	     71.71928748	      1.25173770	     -1.86588956	    -23.66274005	      0.00000000	     -7.22738681	      0.52304460	     -7.73783783	     17.43239619	      0.30425271	     -5.66267221	     -5.27365559	      0.00000000
     15.07333333	    -12.65959387	     -1.87931647	     -3.24034853	      2.02923929	      0.96974187	      0.99618619	     56.33508414	      2.51520724	     -4.33591953	     67.32045572	      1.17496361	     -1.58867603	    -23.23463408	      0.00000000	     -8.41824584	     -0.03896987	     -7.79739057	     16.64363487	      0.29048623	     -8.91216611	     -4.99062744	      0.00000000
     15.08000000	    -12.84079647	     -2.20327859	     -3.39101061	      2.03108435	      0.97281571	      0.99647989	     55.90502127	      2.60227198	     -5.28738201	     62.90968192	      1.09798108	     -1.29473190	    -22.35969432	      0.00000000	     -9.48888133	     -0.38992695	     -7.74952062	     16.27178636	      0.28399625	    -11.89040240	     -5.05962716	      0.00000000
     15.08666667	    -12.94103481	     -2.36493978	     -3.49871089	      2.03290292	      0.97561510	      0.99671665	     55.28581457	      2.52348393	     -6.20932533	     58.53287394	      1.02159137	     -1.00877273	    -21.00144767	      0.00000000	    -10.41475143	     -0.55077613	     -7.47440155	     16.36154272	      0.28556279	    -14.49748616	     -5.45592827	      0.00000000
     15.09333333	    -12.93044290	     -2.35420668	     -3.57540444	      2.03461100	      0.97808276	      0.99696501	     54.49222844	      2.30103918	     -7.08792603	     54.27934543	      0.94735329	     -0.70804078	    -19.15212925	      0.00000000	    -11.21189945	     -0.51199604	     -7.01643607	     16.95470816	      0.29591548	    -16.73242602	     -6.20063647	      0.00000000
